<svg width="866" height="1111" viewBox="0 0 866 1111" fill="none" xmlns="http://www.w3.org/2000/svg">
<rect width="800" height="1024" transform="translate(66 87)" fill="white"/>
<g filter="url(#filter0_f_6316_7981)">
<circle cx="96" cy="788" r="80" fill="url(#paint0_linear_6316_7981)"/>
</g>
<g filter="url(#filter1_f_6316_7981)">
<circle cx="703" cy="101" r="85" fill="url(#paint1_linear_6316_7981)"/>
</g>
<circle cx="677" cy="280" r="16" fill="url(#paint2_linear_6316_7981)"/>
<circle cx="202" cy="976" r="12" fill="url(#paint3_linear_6316_7981)"/>
<path fill-rule="evenodd" clip-rule="evenodd" d="M479.081 943C438.168 943 405.318 937.292 388.299 934.124C322.411 921.861 266.791 913.21 219.006 870.038C133.864 793.114 118.73 650.681 156.166 531.654V761.763C156.166 786.13 173.685 806.057 195.663 806.685C261.288 808.56 437.109 812.233 573.528 813.977C573.825 847.675 574.28 876.917 574.609 895.518C574.826 907.786 583.161 917.718 593.641 918.233C599.856 918.537 607.016 918.76 614.866 918.91C566.778 937.539 519.079 943 479.081 943ZM797.592 685.653C796.865 642.341 796.099 604.621 795.671 584.513C795.478 575.325 789.334 567.813 781.494 567.22C775.288 566.747 767.666 566.54 759.051 566.54C758.547 566.54 758.04 566.54 757.528 566.542C757.243 557.309 756.902 548.264 756.494 539.509C760.033 526.997 761.928 513.925 761.928 500.52C761.928 416.342 687.193 351.083 599.831 351.083C537.685 351.083 483.906 385.622 458.04 435.859C370.165 433.999 281.344 432.535 224.502 432.535C217.125 432.535 210.29 432.559 204.061 432.609C220.643 409.078 268.98 346.995 341.994 310.742C373.155 315.27 385.798 355.261 407.202 355.261C407.36 355.261 407.519 355.258 407.677 355.254C429.64 354.65 457.573 311.959 453.227 283.008C456.905 282.883 460.942 282.805 465.302 282.805C514.595 282.805 605.01 292.775 682.35 357.57C697.162 369.979 720.997 392.361 743.101 426.5C790.556 499.791 810.238 596.684 797.592 685.653Z" fill="url(#paint4_linear_6316_7981)"/>
<path fill-rule="evenodd" clip-rule="evenodd" d="M573.528 813.977C437.109 812.233 261.288 808.56 195.663 806.685C173.685 806.057 156.166 786.13 156.166 761.763V465.56C156.166 447.802 168.956 433.301 184.974 432.903C190.445 432.765 196.836 432.671 204.061 432.609C210.29 432.559 217.124 432.535 224.502 432.535C281.344 432.535 370.165 433.999 458.04 435.859C455.696 440.41 453.588 445.079 451.716 449.875L191.491 444.048C191.34 444.043 191.19 444.04 191.041 444.04C181.07 444.04 172.935 453.006 172.935 464.118V745.533C172.935 759.76 183.239 771.352 196.073 771.565L573.285 776.729C573.295 779.67 573.31 782.596 573.325 785.502L172.948 777.941C172.544 777.961 172.223 778.25 172.215 778.648C172.207 779.046 172.524 779.373 172.921 779.383L573.332 786.944C573.384 796.186 573.451 805.226 573.528 813.977ZM745.826 566.681C750.241 558.009 753.832 548.917 756.494 539.509C756.902 548.264 757.243 557.309 757.528 566.542C753.79 566.552 749.88 566.599 745.826 566.681Z" fill="url(#paint5_linear_6316_7981)"/>
<path fill-rule="evenodd" clip-rule="evenodd" d="M573.286 776.729L196.073 771.564C183.239 771.352 172.935 759.759 172.935 745.533V464.118C172.935 453.006 181.07 444.04 191.041 444.04C191.19 444.04 191.34 444.043 191.491 444.047L451.716 449.875C450.334 453.416 449.085 457.022 447.974 460.685L209.462 455.536C209.32 455.531 209.18 455.528 209.039 455.528C199.675 455.528 192.033 463.648 192.033 473.714V728.601C192.033 741.487 201.711 751.986 213.766 752.179L573.231 756.925C573.239 763.581 573.258 770.187 573.286 776.729Z" fill="url(#paint6_linear_6316_7981)"/>
<path fill-rule="evenodd" clip-rule="evenodd" d="M573.231 756.925L213.766 752.179C201.711 751.986 192.033 741.487 192.033 728.601V473.714C192.033 463.648 199.675 455.528 209.039 455.528C209.18 455.528 209.32 455.531 209.462 455.536L447.974 460.685C443.856 474.266 441.648 488.638 441.648 503.503C441.648 579.269 499.03 642.127 574.201 653.93C573.429 685.722 573.187 721.846 573.231 756.925Z" fill="url(#paint7_linear_6316_7981)"/>
<path fill-rule="evenodd" clip-rule="evenodd" d="M573.332 786.943L172.921 779.382C172.524 779.372 172.208 779.046 172.215 778.648C172.223 778.25 172.544 777.96 172.949 777.94L573.325 785.501C573.328 785.979 573.33 786.468 573.332 786.943Z" fill="url(#paint8_linear_6316_7981)"/>
<path fill-rule="evenodd" clip-rule="evenodd" d="M247.956 827.465C284.582 816.014 306.787 758.129 291.235 735.239C280.726 719.771 259.795 730.31 244.44 713.477C224.834 691.984 247.43 662.171 237.185 616.42C228.467 577.483 198.131 536.684 175.557 539.897C151.927 543.258 130.392 595.758 143.559 632.034C152.122 655.624 170.902 660.071 171.456 680.686C172.099 704.605 147.146 710.989 143.014 733.327C135.592 773.449 199.502 842.617 247.956 827.465Z" fill="url(#paint9_linear_6316_7981)"/>
<path fill-rule="evenodd" clip-rule="evenodd" d="M227.128 839.578C227.328 839.615 227.539 839.607 227.747 839.548C228.485 839.34 228.913 838.573 228.706 837.836C200.691 738.366 206.689 629.868 206.752 628.785C206.797 628.02 206.213 627.363 205.45 627.321C204.686 627.274 204.03 627.857 203.985 628.621C203.921 629.71 197.897 738.675 226.038 838.588C226.186 839.117 226.622 839.486 227.128 839.578Z" fill="url(#paint10_linear_6316_7981)"/>
<path d="M167.045 650.047C167.185 650.072 167.335 650.052 167.471 649.981C167.794 649.81 167.919 649.41 167.748 649.085C156.954 628.582 146.26 598.764 156.619 573.163C162.789 557.918 173.645 551.334 173.754 551.267C174.068 551.082 174.171 550.676 173.985 550.362C173.798 550.045 173.391 549.941 173.077 550.129C172.617 550.404 161.727 557.01 155.391 572.666C149.569 587.055 146.782 612.102 166.576 649.704C166.675 649.892 166.851 650.013 167.045 650.047Z" fill="#F0F0F0"/>
<path d="M252.408 820.016C252.616 820.053 252.838 819.991 252.997 819.828C280.174 792.249 291.873 769.269 287.77 751.533C284.119 735.766 268.772 730.204 268.616 730.15C268.27 730.031 267.894 730.209 267.773 730.555C267.652 730.899 267.832 731.277 268.176 731.399C268.325 731.45 283.008 736.793 286.481 751.85C290.465 769.114 278.881 791.672 252.054 818.898C251.797 819.16 251.8 819.578 252.06 819.836C252.159 819.935 252.281 819.994 252.408 820.016Z" fill="#F0F0F0"/>
<path fill-rule="evenodd" clip-rule="evenodd" d="M435.84 557.606C411.822 557.606 392.28 577.147 392.28 601.163C392.28 625.181 411.822 644.722 435.84 644.722C459.855 644.722 479.397 625.181 479.397 601.163C479.397 577.147 459.855 557.606 435.84 557.606ZM435.84 653.49C406.987 653.49 383.513 630.016 383.513 601.163C383.513 572.312 406.987 548.838 435.84 548.838C464.691 548.838 488.165 572.312 488.165 601.163C488.165 630.016 464.691 653.49 435.84 653.49Z" fill="url(#paint11_linear_6316_7981)"/>
<path fill-rule="evenodd" clip-rule="evenodd" d="M419.447 621.315V583.696C419.447 579.677 423.822 577.184 427.28 579.237L458.977 598.046C462.363 600.055 462.363 604.957 458.977 606.965L427.28 625.774C423.822 627.825 419.447 625.334 419.447 621.315Z" fill="url(#paint12_linear_6316_7981)"/>
<path fill-rule="evenodd" clip-rule="evenodd" d="M646.912 919.182C635.52 919.182 624.665 919.101 614.866 918.91C607.016 918.76 599.856 918.537 593.64 918.233C583.161 917.718 574.826 907.786 574.608 895.518C574.279 876.917 573.824 847.675 573.527 813.976C573.451 805.226 573.384 796.186 573.332 786.944C573.33 786.469 573.327 785.979 573.325 785.502C573.31 782.596 573.295 779.67 573.285 776.729C573.258 770.187 573.238 763.581 573.231 756.925C573.186 721.847 573.429 685.722 574.2 653.93C577.843 654.504 581.529 654.954 585.253 655.284C586.097 720.959 590.328 817.711 592.028 854.59C592.436 863.464 598.377 870.627 605.947 871.337C618.301 872.492 635.458 872.937 654.268 872.937C699.487 872.937 754.223 870.37 774.469 868.985C781.432 868.507 786.925 861.914 787.167 853.762C788.824 797.972 783.601 647.102 781.946 601.752C781.659 593.901 776.324 587.604 769.617 587.177C765.15 586.892 759.622 586.764 753.3 586.764C747.295 586.764 740.578 586.88 733.383 587.088C738.043 580.605 742.213 573.779 745.826 566.681C749.88 566.599 753.79 566.552 757.527 566.542C758.039 566.54 758.546 566.54 759.051 566.54C767.665 566.54 775.288 566.747 781.493 567.22C789.334 567.813 795.477 575.325 795.67 584.513C796.098 604.621 796.865 642.341 797.592 685.653C798.895 763.373 800.063 859.082 798.881 903.185C798.685 910.462 793.699 916.301 787.479 916.539C765.264 917.389 700.258 919.182 646.912 919.182Z" fill="url(#paint13_linear_6316_7981)"/>
<path fill-rule="evenodd" clip-rule="evenodd" d="M654.269 872.937C635.46 872.937 618.303 872.491 605.949 871.336C598.378 870.627 592.437 863.464 592.029 854.59C590.33 817.711 586.098 720.959 585.255 655.283C588.537 655.572 591.839 655.763 595.173 655.857C595.892 714.028 599.672 800.425 601.183 833.253C601.544 841.111 606.805 847.454 613.51 848.083C624.449 849.107 639.645 849.5 656.3 849.5C696.345 849.5 744.814 847.227 762.742 846C768.908 845.577 773.773 839.74 773.988 832.518C775.455 783.115 770.83 649.513 769.363 609.354C769.111 602.402 764.387 596.827 758.446 596.446C754.492 596.194 749.597 596.08 743.997 596.08C738.633 596.08 732.62 596.186 726.185 596.372C728.7 593.359 731.099 590.268 733.385 587.087C740.579 586.879 747.297 586.763 753.302 586.763C759.624 586.763 765.151 586.892 769.618 587.176C776.326 587.604 781.661 593.901 781.948 601.751C783.602 647.101 788.826 797.972 787.169 853.761C786.926 861.913 781.433 868.507 774.471 868.984C754.225 870.369 699.488 872.937 654.269 872.937Z" fill="url(#paint14_linear_6316_7981)"/>
<path fill-rule="evenodd" clip-rule="evenodd" d="M656.299 849.5C639.644 849.5 624.448 849.107 613.509 848.083C606.804 847.454 601.543 841.111 601.182 833.253C599.671 800.425 595.892 714.028 595.172 655.857C596.718 655.899 598.276 655.921 599.832 655.921C650.056 655.921 696.106 632.38 726.184 596.372C732.62 596.186 738.632 596.08 743.997 596.08C749.596 596.08 754.491 596.194 758.446 596.446C764.386 596.827 769.11 602.402 769.363 609.354C770.829 649.513 775.454 783.115 773.988 832.518C773.772 839.74 768.908 845.577 762.742 846C744.813 847.227 696.344 849.5 656.299 849.5Z" fill="url(#paint15_linear_6316_7981)"/>
<path d="M648.269 700.309C646.476 700.309 645.043 701.719 645.006 703.443L643.849 758.08C643.812 759.841 645.214 761.308 646.978 761.345L722.024 762.935C723.748 762.935 725.18 761.533 725.217 759.807L726.375 705.174C726.412 703.411 725.01 701.942 723.246 701.905L648.271 700.309H648.269ZM722.024 770.204L721.799 770.202L646.822 768.611C641.054 768.49 636.461 763.697 636.582 757.929L637.742 703.295C637.861 697.648 642.553 693.053 648.199 693.053L648.424 693.055L723.402 694.646C729.17 694.767 733.763 699.56 733.641 705.328L732.481 759.962C732.363 765.609 727.671 770.204 722.024 770.204Z" fill="white"/>
<path d="M685.165 733.711C684.404 733.711 683.644 733.471 683.001 732.996L641.641 702.327C640.03 701.13 639.692 698.855 640.886 697.242C642.083 695.632 644.359 695.293 645.969 696.488L685.259 725.621L725.218 698.496C726.877 697.366 729.138 697.801 730.266 699.461C731.391 701.12 730.958 703.381 729.299 704.506L687.206 733.082C686.59 733.5 685.878 733.711 685.165 733.711Z" fill="white"/>
<path d="M642.948 766.858L642.02 759.651L642.45 763.259L639.445 761.219C640.266 759.957 655.962 733.807 666.31 716.539C667.341 714.82 669.572 714.261 671.294 715.29C673.015 716.324 673.574 718.555 672.543 720.276C672.543 720.276 665.825 731.485 659.093 742.699C655.727 748.306 652.358 753.913 649.823 758.12C644.703 766.616 644.704 766.616 642.948 766.858Z" fill="white"/>
<path d="M725.528 768.607C723.789 768.288 723.789 768.288 719.036 759.587C716.681 755.276 713.552 749.53 710.426 743.787C704.176 732.299 697.938 720.813 697.938 720.813C696.981 719.052 697.634 716.846 699.398 715.886C701.164 714.929 703.367 715.582 704.324 717.345C713.933 735.037 728.503 761.827 729.272 763.123L726.186 765.035L725.528 768.607Z" fill="white"/>
<path fill-rule="evenodd" clip-rule="evenodd" d="M247.642 497.159C247.74 497.122 300.278 405.116 307.379 396.457C308.571 395 310.421 394.258 312.291 394.481L326.955 396.229L344.184 433.499L315.481 416.782C318.323 436.425 281.451 465.612 268.808 476.265C267.524 477.346 267.42 479.282 268.578 480.494L273.626 485.78C265.338 494.179 255.775 499.573 244.981 502.069L247.642 497.159Z" fill="url(#paint16_linear_6316_7981)"/>
<path fill-rule="evenodd" clip-rule="evenodd" d="M270.707 482.928C270.707 482.928 273.928 483.967 275.018 486.838C275.54 488.211 274.979 489.764 273.784 490.62C268.479 494.421 250.98 506.694 242.904 509.095C242.242 509.293 241.613 508.694 241.761 508.019C242.176 506.142 243.516 502.397 247.835 496.912L247.447 497.696C246.957 498.687 248.037 499.721 249.001 499.177C254.402 496.128 265.402 489.455 270.707 482.928Z" fill="url(#paint17_linear_6316_7981)"/>
<path fill-rule="evenodd" clip-rule="evenodd" d="M268.105 519.74C268.194 519.683 276.077 500.693 276.166 500.636C283.393 456.634 301.025 418.949 306.226 409.033C307.101 407.364 308.761 406.263 310.638 406.105L325.352 404.849L349.766 437.86L318.276 427.299C325.033 445.959 294.832 482.005 284.605 494.995C283.568 496.313 283.855 498.23 285.235 499.185L291.25 503.337C284.832 513.24 276.559 520.46 266.493 525.087L268.105 519.74Z" fill="url(#paint18_linear_6316_7981)"/>
<path fill-rule="evenodd" clip-rule="evenodd" d="M287.812 501.136C287.812 501.136 291.178 501.502 292.827 504.092C293.616 505.331 293.379 506.968 292.382 508.047C287.958 512.842 273.303 528.402 265.881 532.389C265.272 532.715 264.535 532.258 264.543 531.567C264.57 529.646 265.124 525.706 268.243 519.461L268.023 520.307C267.743 521.378 269.01 522.169 269.843 521.442C274.515 517.363 283.938 508.601 287.812 501.136Z" fill="url(#paint19_linear_6316_7981)"/>
<path fill-rule="evenodd" clip-rule="evenodd" d="M394.227 397.896C394.227 397.896 407.539 417.695 408.632 426.724C409.725 435.757 404.952 438.881 391.017 440.031C349.558 443.459 329.121 431.033 329.121 431.033C326.284 412.948 324.266 408.348 300.579 398.517C300.579 398.517 330.538 400.896 336.568 398.556C342.598 396.217 394.227 397.896 394.227 397.896Z" fill="url(#paint20_linear_6316_7981)"/>
<path fill-rule="evenodd" clip-rule="evenodd" d="M407.201 355.26C385.798 355.26 373.154 315.27 341.993 310.741C340.23 310.485 338.41 310.343 336.525 310.327C336.404 310.326 336.283 310.326 336.161 310.326C334.472 310.326 332.768 310.421 331.111 310.517C329.451 310.613 327.834 310.708 326.318 310.708C322.682 310.708 319.62 310.159 317.891 307.742C313.157 301.118 320.362 283.127 332.442 278.444C334.477 277.654 336.414 277.335 338.286 277.335C342.221 277.335 345.871 278.744 349.574 280.153C353.276 281.562 357.028 282.971 361.166 282.971C363.113 282.971 365.146 282.659 367.297 281.889C377.824 278.12 377.013 268.464 386.824 261.177C393.222 256.425 402.126 254.177 411.312 254.177C425.496 254.177 440.358 259.535 447.729 269.31C450.699 273.248 452.462 277.915 453.227 283.008C457.572 311.958 429.639 354.65 407.676 355.254C407.518 355.258 407.36 355.26 407.201 355.26ZM383.441 315.006L383.3 315.284C384.675 315.979 386.112 316.258 387.529 316.258C391.152 316.258 394.657 314.434 396.762 313.08C399.371 311.401 401.81 309.362 404.172 307.39C408.04 304.157 412.042 300.814 416.81 299.064C418.601 298.408 420.28 298.078 421.819 298.078C422.355 298.078 422.877 298.119 423.382 298.2C425.749 298.581 427.742 299.903 428.719 301.737L428.991 301.592C427.972 299.672 425.892 298.29 423.431 297.893C422.909 297.81 422.373 297.768 421.816 297.768C420.241 297.768 418.527 298.104 416.704 298.774C411.883 300.542 407.862 303.902 403.971 307.152C401.619 309.117 399.186 311.151 396.594 312.819C394.894 313.913 391.251 315.928 387.479 315.928C386.122 315.928 384.746 315.666 383.441 315.006ZM373.317 304.755L373.023 304.848C374.292 308.846 378.516 311.06 382.14 311.481C382.709 311.547 383.285 311.58 383.868 311.58C388.048 311.58 392.592 309.905 396.843 306.762C400.019 304.418 402.799 301.523 405.49 298.723C406.375 297.8 407.293 296.845 408.211 295.925C412.242 291.881 416.637 288.142 421.272 284.813C424.309 282.63 427.601 280.626 431.2 280.626C431.316 280.626 431.435 280.628 431.553 280.632C433.668 280.711 435.877 281.865 437.178 283.573C438.167 284.868 438.533 286.354 438.206 287.753L438.508 287.824C438.857 286.332 438.471 284.756 437.425 283.385C436.067 281.607 433.767 280.404 431.566 280.322C431.442 280.318 431.318 280.315 431.195 280.315C427.519 280.315 424.171 282.349 421.091 284.561C416.444 287.9 412.034 291.65 407.99 295.706C407.073 296.628 406.153 297.585 405.265 298.508C402.584 301.299 399.814 304.185 396.66 306.513C392.461 309.616 387.986 311.27 383.871 311.27C383.3 311.27 382.733 311.238 382.177 311.174C378.65 310.764 374.544 308.62 373.317 304.755ZM343.247 285.711C350.863 285.711 354.535 287.09 364.176 295.495C370.367 300.892 376.085 303.596 381.655 303.763C381.798 303.767 381.939 303.769 382.083 303.769C387.991 303.769 394.078 300.099 398.844 293.639C400.959 290.774 402.722 287.613 404.429 284.556C406.019 281.706 407.664 278.759 409.588 276.065C410.976 274.119 413.169 271.362 416.197 269.89C417.572 269.221 419.034 268.889 420.431 268.889C422.053 268.889 423.592 269.337 424.801 270.225L424.984 269.975C423.72 269.048 422.118 268.58 420.429 268.58C418.987 268.58 417.478 268.921 416.061 269.611C412.972 271.114 410.743 273.911 409.336 275.884C407.402 278.593 405.755 281.547 404.159 284.404C402.458 287.454 400.699 290.605 398.597 293.455C393.885 299.837 387.878 303.459 382.075 303.459C381.939 303.459 381.801 303.457 381.665 303.453C376.167 303.288 370.513 300.609 364.379 295.261C354.723 286.843 350.828 285.402 343.208 285.402C342.998 285.402 342.785 285.403 342.57 285.405L342.572 285.715C342.8 285.713 343.025 285.711 343.247 285.711Z" fill="url(#paint21_linear_6316_7981)"/>
<path fill-rule="evenodd" clip-rule="evenodd" d="M358.229 395.274C358.229 395.274 342.729 380.514 335.099 370.738C330.974 365.453 329.677 358.496 331.587 352.07C335.069 340.333 341.26 328.178 341.826 326.286C342.689 323.386 360.072 323.507 360.072 323.507C360.072 323.507 394.272 345.704 407.712 383.304L392.62 388.003C392.62 388.003 383.689 373.021 374.867 363.495C374.867 363.495 390.134 383.665 390.671 391.921L358.229 395.274Z" fill="url(#paint22_linear_6316_7981)"/>
<path fill-rule="evenodd" clip-rule="evenodd" d="M328.696 401.099L340.342 388.426L353.795 392.049C353.795 392.049 369.478 394.478 378.453 392.049L387.429 389.618L407.712 383.304L410.895 392.306C411.707 394.592 410.893 397.129 408.917 398.534C407.161 399.781 405.105 401.151 403.795 401.725C401.123 402.895 342.262 402.096 342.262 402.096L328.696 401.099Z" fill="url(#paint23_linear_6316_7981)"/>
<path fill-rule="evenodd" clip-rule="evenodd" d="M348.126 302.609L359.807 324.331C359.035 329.073 347.094 329.207 345.249 326.376C345.061 326.087 344.953 325.754 344.883 325.418L337.894 310.903C337.595 309.488 341.475 304.719 342.751 304.04L347.394 301.568C349.182 300.617 341.723 300.541 348.126 302.609Z" fill="url(#paint24_linear_6316_7981)"/>
<path fill-rule="evenodd" clip-rule="evenodd" d="M324.483 297.511C324.483 297.511 323.165 304.85 328.932 314.181C334.702 323.512 340.445 323.091 343.364 319.763C346.282 316.436 349.777 310.893 348.187 301.587C346.596 292.28 326.476 288.153 324.483 297.511Z" fill="url(#paint25_linear_6316_7981)"/>
<path fill-rule="evenodd" clip-rule="evenodd" d="M341.204 302.598C341.204 302.598 331.863 290.329 324.693 301.024L324.814 304.719C324.814 304.719 319.454 307.671 320.466 299.076C321.478 290.481 325.123 281.222 335.679 284.158C346.233 287.095 352.399 290.439 353.591 297.767C354.783 305.094 348.8 303.897 348.8 303.897C348.8 303.897 346.515 298.841 343.754 298.496C340.994 298.15 341.993 302.15 341.993 302.15L341.204 302.598Z" fill="url(#paint26_linear_6316_7981)"/>
<path fill-rule="evenodd" clip-rule="evenodd" d="M343.349 302.271C343.349 302.271 338.509 295.992 342.913 294.689C347.318 293.386 347.153 300.841 346.866 303.614L343.349 302.271Z" fill="url(#paint27_linear_6316_7981)"/>
<path fill-rule="evenodd" clip-rule="evenodd" d="M367.249 406.115C367.21 406.118 367.168 406.118 367.126 406.118L313.554 406.058C312.229 406.058 311.158 404.982 311.158 403.659C311.16 402.333 312.239 401.24 313.559 401.263L367.133 401.322C368.456 401.322 369.53 402.398 369.527 403.721C369.527 405.005 368.518 406.053 367.249 406.115Z" fill="url(#paint28_linear_6316_7981)"/>
<path fill-rule="evenodd" clip-rule="evenodd" d="M265.395 357.473H310.011C313.302 357.473 316.298 359.373 317.702 362.349L338.327 406.085H282.881C280.762 406.085 278.855 404.789 278.076 402.818L262.081 362.346C261.156 360.008 262.88 357.473 265.395 357.473Z" fill="url(#paint29_linear_6316_7981)"/>
<path fill-rule="evenodd" clip-rule="evenodd" d="M382.083 303.77C381.94 303.77 381.799 303.768 381.656 303.764C376.086 303.596 370.368 300.892 364.177 295.496C354.536 287.091 350.863 285.712 343.248 285.712C343.025 285.712 342.8 285.713 342.573 285.715L342.57 285.405C342.785 285.403 342.998 285.402 343.208 285.402C350.829 285.402 354.724 286.844 364.38 295.262C370.513 300.609 376.167 303.289 381.665 303.453C381.802 303.457 381.94 303.459 382.076 303.459C387.878 303.459 393.886 299.838 398.598 293.455C400.7 290.606 402.458 287.454 404.16 284.405C405.755 281.548 407.402 278.593 409.337 275.885C410.744 273.911 412.972 271.114 416.061 269.612C417.479 268.922 418.987 268.58 420.429 268.58C422.118 268.58 423.721 269.049 424.985 269.975L424.802 270.226C423.593 269.338 422.054 268.89 420.432 268.89C419.034 268.89 417.573 269.221 416.197 269.89C413.17 271.363 410.976 274.119 409.589 276.065C407.665 278.759 406.02 281.707 404.43 284.556C402.723 287.613 400.96 290.774 398.845 293.639C394.079 300.099 387.992 303.77 382.083 303.77Z" fill="url(#paint30_linear_6316_7981)"/>
<path fill-rule="evenodd" clip-rule="evenodd" d="M383.869 311.58C383.285 311.58 382.709 311.547 382.14 311.481C378.517 311.061 374.292 308.846 373.023 304.848L373.318 304.755C374.545 308.62 378.65 310.764 382.177 311.174C382.734 311.238 383.3 311.27 383.871 311.27C387.987 311.27 392.461 309.616 396.661 306.513C399.814 304.185 402.584 301.299 405.265 298.508C406.153 297.585 407.073 296.628 407.991 295.706C412.035 291.65 416.444 287.9 421.092 284.561C424.171 282.349 427.52 280.315 431.195 280.315C431.319 280.315 431.442 280.318 431.566 280.322C433.767 280.404 436.067 281.607 437.425 283.385C438.471 284.756 438.857 286.332 438.509 287.824L438.207 287.753C438.533 286.354 438.167 284.868 437.178 283.573C435.877 281.865 433.668 280.711 431.554 280.632C431.435 280.628 431.316 280.626 431.2 280.626C427.601 280.626 424.309 282.63 421.272 284.813C416.637 288.142 412.242 291.881 408.211 295.926C407.293 296.845 406.376 297.8 405.49 298.723C402.799 301.523 400.019 304.418 396.844 306.762C392.592 309.905 388.049 311.58 383.869 311.58Z" fill="url(#paint31_linear_6316_7981)"/>
<path fill-rule="evenodd" clip-rule="evenodd" d="M387.531 316.258C386.114 316.258 384.677 315.979 383.302 315.284L383.443 315.006C384.749 315.666 386.124 315.928 387.482 315.928C391.253 315.928 394.897 313.914 396.596 312.819C399.188 311.151 401.621 309.118 403.973 307.152C407.864 303.902 411.885 300.542 416.706 298.774C418.529 298.104 420.243 297.768 421.818 297.768C422.375 297.768 422.911 297.81 423.433 297.893C425.894 298.29 427.974 299.672 428.993 301.593L428.721 301.737C427.744 299.903 425.751 298.581 423.384 298.2C422.879 298.119 422.357 298.079 421.821 298.079C420.282 298.079 418.603 298.408 416.812 299.065C412.044 300.814 408.042 304.157 404.174 307.39C401.812 309.362 399.373 311.401 396.764 313.08C394.659 314.434 391.154 316.258 387.531 316.258Z" fill="url(#paint32_linear_6316_7981)"/>
<path fill-rule="evenodd" clip-rule="evenodd" d="M599.831 655.921C598.275 655.921 596.717 655.899 595.171 655.857C591.837 655.763 588.536 655.573 585.254 655.284C581.529 654.954 577.844 654.504 574.201 653.93C499.03 642.128 441.647 579.269 441.647 503.503C441.647 488.639 443.856 474.266 447.974 460.686C449.085 457.023 450.334 453.417 451.716 449.875C453.588 445.079 455.696 440.41 458.04 435.859C483.906 385.622 537.685 351.083 599.831 351.083C687.192 351.083 761.928 416.342 761.928 500.52C761.928 513.925 760.033 526.997 756.494 539.509C753.832 548.917 750.241 558.009 745.827 566.68C742.213 573.779 738.043 580.605 733.383 587.087C731.098 590.268 728.699 593.36 726.184 596.372C696.106 632.381 650.056 655.921 599.831 655.921ZM600.093 371.566C524.473 371.566 463.17 430.635 463.17 503.503C463.17 576.368 524.473 635.438 600.093 635.438C675.716 635.438 740.405 573.786 740.405 500.921C740.405 428.055 675.716 371.566 600.093 371.566Z" fill="url(#paint33_linear_6316_7981)"/>
<path d="M749.508 466.441C749.602 466.441 749.696 466.431 749.79 466.406C750.374 466.255 750.72 465.682 750.566 465.118C748.862 458.959 746.688 452.85 744.104 446.959C743.866 446.425 743.223 446.18 742.672 446.4C742.115 446.63 741.856 447.246 742.09 447.783C744.638 453.58 746.78 459.595 748.454 465.659C748.583 466.132 749.026 466.441 749.508 466.441Z" fill="white"/>
<path d="M725.336 418.81C725.564 418.81 725.797 418.739 725.994 418.598C726.474 418.249 726.571 417.586 726.207 417.124C696.901 379.676 649.691 357.32 599.926 357.32C578.673 357.32 558.115 361.473 538.826 369.658C538.275 369.893 538.025 370.516 538.267 371.046C538.51 371.578 539.155 371.819 539.709 371.587C558.716 363.516 578.978 359.425 599.926 359.425C649.011 359.425 695.566 381.468 724.463 418.39C724.679 418.664 725.005 418.81 725.336 418.81Z" fill="white"/>
<path fill-rule="evenodd" clip-rule="evenodd" d="M600.093 635.438C524.472 635.438 463.169 576.368 463.169 503.503C463.169 430.635 524.472 371.566 600.093 371.566C675.716 371.566 740.404 428.056 740.404 500.921C740.404 573.786 675.716 635.438 600.093 635.438ZM622.57 600.419C621.942 600.419 621.306 600.473 620.666 600.584C614.937 601.593 611.143 606.884 612.19 612.402C613.117 617.304 617.554 620.737 622.545 620.737C623.176 620.737 623.812 620.682 624.452 620.568C630.18 619.562 633.974 614.272 632.928 608.751C632.001 603.849 627.564 600.419 622.57 600.419ZM549.781 602.348C548.421 602.348 546.687 604.035 545.72 606.392C544.647 608.996 544.916 611.435 546.316 611.838C546.45 611.875 546.588 611.895 546.732 611.895C548.092 611.895 549.826 610.21 550.795 607.853C551.866 605.249 551.597 602.81 550.197 602.407C550.063 602.368 549.925 602.348 549.781 602.348ZM652.788 595.146C652.445 595.146 652.136 595.237 651.881 595.433C650.733 596.303 651.094 598.91 652.687 601.252C653.929 603.075 655.549 604.2 656.748 604.2C657.092 604.2 657.401 604.109 657.656 603.913C658.804 603.043 658.442 600.436 656.85 598.094C655.608 596.271 653.988 595.146 652.788 595.146ZM502.294 565.696C501.048 565.696 499.388 566.3 497.879 567.4C495.56 569.09 494.474 571.308 495.456 572.354C495.797 572.72 496.346 572.894 497.014 572.894C498.26 572.894 499.92 572.29 501.429 571.189C503.749 569.5 504.834 567.282 503.852 566.235C503.511 565.869 502.962 565.696 502.294 565.696ZM694.676 552.244C693.553 552.244 692.712 552.6 692.44 553.3C691.928 554.621 693.64 556.666 696.266 557.871C697.498 558.437 698.715 558.717 699.709 558.717C700.832 558.717 701.673 558.361 701.945 557.661C702.457 556.34 700.745 554.294 698.119 553.09C696.887 552.524 695.67 552.244 694.676 552.244ZM488.199 498.685C487.994 498.685 487.786 498.69 487.576 498.702C481.764 499.026 477.326 503.832 477.665 509.432C477.992 514.831 482.639 519.001 488.179 519.001C488.385 519.001 488.592 518.993 488.803 518.983C494.615 518.657 499.052 513.851 498.713 508.252C498.387 502.853 493.742 498.685 488.199 498.685ZM715.946 485.911C715.741 485.911 715.533 485.916 715.325 485.928C709.513 486.254 705.076 491.058 705.412 496.66C705.739 502.059 710.386 506.226 715.929 506.226C716.134 506.226 716.342 506.221 716.55 506.209C722.362 505.882 726.799 501.079 726.463 495.48C726.136 490.081 721.489 485.911 715.946 485.911ZM488.427 450.422C487.304 450.422 486.463 450.775 486.191 451.475C485.679 452.796 487.39 454.844 490.017 456.048C491.251 456.612 492.465 456.892 493.46 456.892C494.583 456.892 495.426 456.538 495.696 455.838C496.208 454.517 494.496 452.469 491.872 451.265C490.638 450.701 489.421 450.422 488.427 450.422ZM691.122 436.242C689.875 436.242 688.216 436.848 686.707 437.946C684.39 439.638 683.304 441.854 684.283 442.9C684.625 443.266 685.174 443.442 685.844 443.442C687.088 443.442 688.748 442.836 690.256 441.735C692.576 440.046 693.662 437.828 692.68 436.781C692.339 436.418 691.79 436.242 691.122 436.242ZM531.388 404.935C531.044 404.935 530.737 405.027 530.48 405.222C529.332 406.095 529.693 408.7 531.289 411.044C532.528 412.865 534.148 413.99 535.347 413.99C535.691 413.99 536 413.899 536.255 413.706C537.405 412.833 537.044 410.226 535.449 407.884C534.209 406.063 532.587 404.935 531.388 404.935ZM641.404 397.241C640.046 397.241 638.312 398.928 637.343 401.285C636.272 403.887 636.539 406.325 637.939 406.731C638.073 406.768 638.211 406.788 638.354 406.788C639.715 406.788 641.449 405.104 642.418 402.747C643.489 400.142 643.222 397.704 641.82 397.298C641.686 397.261 641.547 397.241 641.404 397.241ZM581.58 384.174C580.952 384.174 580.314 384.229 579.673 384.341C573.945 385.349 570.151 390.64 571.197 396.158C572.127 401.06 576.562 404.493 581.556 404.493C582.184 404.493 582.822 404.438 583.462 404.325C589.188 403.318 592.985 398.028 591.938 392.51C591.008 387.608 586.574 384.174 581.58 384.174Z" fill="url(#paint34_linear_6316_7981)"/>
<path fill-rule="evenodd" clip-rule="evenodd" d="M715.93 506.226C710.387 506.226 705.74 502.059 705.413 496.66C705.077 491.058 709.514 486.254 715.326 485.928C715.534 485.916 715.742 485.911 715.947 485.911C721.49 485.911 726.137 490.081 726.464 495.48C726.8 501.079 722.363 505.882 716.551 506.209C716.343 506.221 716.135 506.226 715.93 506.226Z" fill="url(#paint35_linear_6316_7981)"/>
<path fill-rule="evenodd" clip-rule="evenodd" d="M488.179 519C482.639 519 477.992 514.83 477.665 509.431C477.326 503.831 481.763 499.026 487.576 498.702C487.786 498.69 487.994 498.685 488.199 498.685C493.742 498.685 498.386 502.852 498.713 508.251C499.052 513.851 494.615 518.656 488.802 518.983C488.592 518.993 488.384 519 488.179 519Z" fill="url(#paint36_linear_6316_7981)"/>
<path fill-rule="evenodd" clip-rule="evenodd" d="M622.545 620.736C617.554 620.736 613.117 617.304 612.19 612.401C611.143 606.884 614.937 601.593 620.666 600.584C621.306 600.473 621.942 600.418 622.57 600.418C627.563 600.418 632.001 603.849 632.928 608.751C633.974 614.271 630.18 619.562 624.452 620.568C623.812 620.682 623.176 620.736 622.545 620.736Z" fill="url(#paint37_linear_6316_7981)"/>
<path fill-rule="evenodd" clip-rule="evenodd" d="M581.557 404.492C576.564 404.492 572.129 401.059 571.199 396.157C570.153 390.639 573.947 385.349 579.675 384.341C580.316 384.228 580.954 384.174 581.582 384.174C586.576 384.174 591.01 387.607 591.94 392.509C592.986 398.027 589.19 403.318 583.464 404.324C582.824 404.438 582.186 404.492 581.557 404.492Z" fill="url(#paint38_linear_6316_7981)"/>
<path fill-rule="evenodd" clip-rule="evenodd" d="M546.732 611.895C546.589 611.895 546.45 611.875 546.317 611.838C544.917 611.434 544.647 608.996 545.721 606.391C546.688 604.034 548.422 602.348 549.782 602.348C549.925 602.348 550.064 602.367 550.197 602.407C551.597 602.81 551.867 605.249 550.796 607.853C549.826 610.21 548.093 611.895 546.732 611.895Z" fill="url(#paint39_linear_6316_7981)"/>
<path fill-rule="evenodd" clip-rule="evenodd" d="M638.355 406.788C638.211 406.788 638.073 406.768 637.939 406.731C636.539 406.325 636.272 403.886 637.343 401.285C638.313 398.927 640.047 397.241 641.404 397.241C641.548 397.241 641.686 397.261 641.82 397.298C643.222 397.703 643.489 400.142 642.418 402.746C641.449 405.103 639.715 406.788 638.355 406.788Z" fill="url(#paint40_linear_6316_7981)"/>
<path fill-rule="evenodd" clip-rule="evenodd" d="M497.014 572.893C496.346 572.893 495.797 572.72 495.456 572.354C494.474 571.308 495.559 569.089 497.879 567.4C499.388 566.299 501.048 565.696 502.294 565.696C502.962 565.696 503.511 565.869 503.852 566.235C504.834 567.281 503.748 569.5 501.428 571.189C499.92 572.29 498.26 572.893 497.014 572.893Z" fill="url(#paint41_linear_6316_7981)"/>
<path fill-rule="evenodd" clip-rule="evenodd" d="M685.844 443.441C685.174 443.441 684.625 443.266 684.284 442.9C683.304 441.854 684.39 439.638 686.708 437.946C688.216 436.848 689.876 436.242 691.122 436.242C691.79 436.242 692.339 436.417 692.68 436.781C693.662 437.827 692.577 440.046 690.257 441.735C688.748 442.835 687.088 443.441 685.844 443.441Z" fill="url(#paint42_linear_6316_7981)"/>
<path fill-rule="evenodd" clip-rule="evenodd" d="M493.461 456.891C492.467 456.891 491.252 456.612 490.018 456.048C487.392 454.844 485.68 452.796 486.192 451.475C486.464 450.775 487.305 450.421 488.428 450.421C489.422 450.421 490.639 450.701 491.873 451.265C494.497 452.469 496.209 454.517 495.697 455.838C495.427 456.538 494.584 456.891 493.461 456.891Z" fill="url(#paint43_linear_6316_7981)"/>
<path fill-rule="evenodd" clip-rule="evenodd" d="M699.709 558.717C698.715 558.717 697.498 558.437 696.266 557.871C693.64 556.666 691.928 554.621 692.44 553.3C692.712 552.6 693.553 552.244 694.676 552.244C695.67 552.244 696.887 552.524 698.119 553.09C700.745 554.295 702.457 556.34 701.945 557.661C701.673 558.361 700.832 558.717 699.709 558.717Z" fill="url(#paint44_linear_6316_7981)"/>
<path fill-rule="evenodd" clip-rule="evenodd" d="M535.348 413.99C534.148 413.99 532.528 412.864 531.289 411.044C529.694 408.699 529.333 406.095 530.48 405.222C530.737 405.027 531.044 404.935 531.388 404.935C532.587 404.935 534.21 406.063 535.449 407.883C537.044 410.225 537.405 412.832 536.255 413.705C536.001 413.898 535.691 413.99 535.348 413.99Z" fill="url(#paint45_linear_6316_7981)"/>
<path fill-rule="evenodd" clip-rule="evenodd" d="M656.75 604.2C655.55 604.2 653.93 603.074 652.689 601.252C651.096 598.909 650.735 596.303 651.882 595.432C652.137 595.237 652.446 595.145 652.79 595.145C653.989 595.145 655.609 596.27 656.851 598.093C658.444 600.435 658.805 603.042 657.657 603.913C657.403 604.108 657.093 604.2 656.75 604.2Z" fill="url(#paint46_linear_6316_7981)"/>
<path fill-rule="evenodd" clip-rule="evenodd" d="M604.357 499.415L689.042 540.11C690.682 540.899 692.603 539.714 692.546 537.948L692.215 527.444C692.151 525.401 694.649 524.269 696.239 525.621L757.47 577.565C759.342 579.156 757.802 582.106 755.363 581.604L676.5 565.379C674.613 564.991 673.93 562.736 675.305 561.432L684.538 552.659C685.678 551.574 685.433 549.741 684.043 548.972L602.066 503.528C600.926 502.897 600.516 501.5 601.146 500.387C601.772 499.281 603.189 498.853 604.357 499.415Z" fill="url(#paint47_linear_6316_7981)"/>
<path d="M747.949 577.323C748.738 577.323 749.45 576.9 749.809 576.188C750.239 575.334 750.017 574.357 749.26 573.754L735.86 563.079C735.397 562.711 734.707 562.772 734.324 563.223C733.938 563.67 734.005 564.331 734.47 564.704L747.868 575.376C730.015 571.449 688.202 562.669 687.334 562.585C686.748 562.518 686.199 562.943 686.137 563.524C686.078 564.096 686.5 564.605 687.089 564.674C688.341 564.867 720.384 571.577 747.487 577.273C747.642 577.308 747.796 577.323 747.949 577.323Z" fill="white"/>
<path fill-rule="evenodd" clip-rule="evenodd" d="M595.525 495.405L595.693 415.622C595.666 413.856 593.689 412.758 592.089 413.617L582.562 418.734C580.71 419.728 578.516 418.113 579.03 416.129L598.732 339.847C599.333 337.514 602.761 337.474 603.422 339.794L624.746 414.729C625.258 416.52 623.495 418.143 621.66 417.566L609.328 413.703C607.804 413.226 606.229 414.279 606.157 415.823L600.37 495.472C600.313 496.741 599.215 497.733 597.896 497.706C596.593 497.678 595.544 496.662 595.525 495.405Z" fill="url(#paint48_linear_6316_7981)"/>
<path d="M618.205 407.413C618.336 407.413 618.472 407.391 618.603 407.342C619.157 407.131 619.434 406.533 619.229 405.996C618.833 404.841 610.276 374.337 603.056 348.526C602.799 347.613 601.995 347.013 600.986 347.036C600.004 347.06 599.203 347.7 598.995 348.627L595.322 365C595.196 365.568 595.572 366.129 596.161 366.25C596.744 366.375 597.331 366.014 597.459 365.444L601.129 349.071C605.722 366.153 616.869 405.961 617.188 406.745C617.357 407.161 617.767 407.413 618.205 407.413Z" fill="white"/>
<path fill-rule="evenodd" clip-rule="evenodd" d="M589.543 499.684C589.543 505.674 594.584 510.532 600.802 510.532C607.022 510.532 612.063 505.674 612.063 499.684C612.063 493.691 607.022 488.833 600.802 488.833C594.584 488.833 589.543 493.691 589.543 499.684Z" fill="url(#paint49_linear_6316_7981)"/>
<path fill-rule="evenodd" clip-rule="evenodd" d="M526.216 353.178C526.532 353.178 526.854 353.106 527.155 352.954C600.617 316.048 663.715 352.512 664.344 352.884C665.34 353.473 666.624 353.145 667.212 352.151C667.804 351.157 667.477 349.872 666.483 349.281C665.818 348.886 649.924 339.563 624.479 334.814C601.015 330.432 564.754 329.374 525.273 349.21C524.239 349.73 523.824 350.989 524.343 352.023C524.709 352.755 525.449 353.178 526.216 353.178Z" fill="url(#paint50_linear_6316_7981)"/>
<path fill-rule="evenodd" clip-rule="evenodd" d="M527.615 335.022C527.931 335.022 528.253 334.949 528.552 334.798C602.013 297.892 665.112 334.355 665.74 334.728C666.739 335.316 668.02 334.989 668.611 333.995C669.203 333.001 668.874 331.716 667.879 331.125C667.216 330.73 651.323 321.407 625.878 316.658C602.414 312.276 566.153 311.218 526.672 331.054C525.638 331.574 525.22 332.833 525.74 333.866C526.108 334.599 526.848 335.022 527.615 335.022Z" fill="url(#paint51_linear_6316_7981)"/>
<path fill-rule="evenodd" clip-rule="evenodd" d="M776.484 484.142C776.387 484.444 776.36 484.771 776.412 485.104C789.379 566.287 735.541 615.407 734.997 615.892C734.134 616.666 734.06 617.986 734.829 618.85C735.598 619.713 736.921 619.789 737.784 619.02C738.361 618.506 752.053 606.177 764.276 583.358C775.546 562.318 787.52 528.075 780.55 484.444C780.367 483.301 779.293 482.522 778.151 482.705C777.342 482.834 776.714 483.41 776.484 484.142Z" fill="url(#paint52_linear_6316_7981)"/>
<path fill-rule="evenodd" clip-rule="evenodd" d="M793.366 490.964C793.272 491.265 793.242 491.592 793.297 491.926C806.262 573.106 752.426 622.228 751.882 622.713C751.018 623.487 750.942 624.808 751.711 625.671C752.48 626.534 753.803 626.611 754.669 625.842C755.245 625.327 768.937 612.998 781.158 590.179C792.431 569.139 804.404 534.897 797.432 491.265C797.249 490.123 796.176 489.344 795.033 489.527C794.224 489.655 793.598 490.232 793.366 490.964Z" fill="url(#paint53_linear_6316_7981)"/>
<path fill-rule="evenodd" clip-rule="evenodd" d="M266.065 669.012C265.905 669.314 255.881 676.689 255.881 676.689C255.881 676.689 258.094 692.526 267.084 698.781C276.968 705.656 290.927 693.117 290.927 693.117C290.927 693.117 302.034 695.758 307.94 672.636C309.296 667.33 301.473 666.88 292.032 667.86C279.856 669.119 266.065 669.012 266.065 669.012Z" fill="url(#paint54_linear_6316_7981)"/>
<path fill-rule="evenodd" clip-rule="evenodd" d="M247.326 723.043C251.248 720.348 255.584 718.314 260.18 717.063C261.907 716.593 271.231 719.304 276.994 719.17C284.903 718.987 292.956 715.389 299.476 717.014C305.953 718.629 311.254 720.736 314.315 722.912C323.479 729.429 328.858 741.581 332.135 753.616C325.928 759.989 318.117 762.821 318.117 762.821L316.672 821.324L282.079 839.023L242.594 819.2L244.008 762.027C244.008 762.027 231.469 756.188 230.55 754.063C229.63 751.941 236.264 730.649 247.326 723.043Z" fill="url(#paint55_linear_6316_7981)"/>
<path fill-rule="evenodd" clip-rule="evenodd" d="M231.133 753.809C231.133 753.809 214.331 800.393 252.646 819.537C260.603 818.48 257.542 805.268 257.542 805.268C257.542 805.268 240.894 801.583 245.894 762.725C241.29 758.939 231.133 753.809 231.133 753.809Z" fill="url(#paint56_linear_6316_7981)"/>
<path fill-rule="evenodd" clip-rule="evenodd" d="M331.327 753.809C331.327 753.809 342.89 802.436 309.815 819.537C301.858 818.48 304.92 805.268 304.92 805.268C304.92 805.268 318.338 798.66 316.567 762.725C321.172 758.939 331.327 753.809 331.327 753.809Z" fill="url(#paint57_linear_6316_7981)"/>
<path fill-rule="evenodd" clip-rule="evenodd" d="M316.996 822.808H243.141C242.589 822.808 242.138 822.358 242.138 821.806V772.581C242.138 772.029 242.589 771.577 243.141 771.577H316.996C317.548 771.577 317.998 772.029 317.998 772.581V821.806C317.998 822.358 317.548 822.808 316.996 822.808Z" fill="url(#paint58_linear_6316_7981)"/>
<path fill-rule="evenodd" clip-rule="evenodd" d="M351.274 837.997C342.591 836.003 322.527 837.077 322.527 837.077L321.711 839.285L320.358 850.272C320.358 850.272 339.467 853.717 348.888 853.707C349.847 853.707 350.728 853.564 351.529 853.314C351.816 853.054 352.098 852.787 352.363 852.498C356.359 848.132 355.204 841.722 351.274 837.997Z" fill="url(#paint59_linear_6316_7981)"/>
<path fill-rule="evenodd" clip-rule="evenodd" d="M352.131 838.214C351.862 838.138 351.572 838.066 351.273 837.997C355.203 841.721 356.358 848.132 352.361 852.497C352.097 852.787 351.815 853.054 351.528 853.314C358.594 851.112 359.43 840.267 352.131 838.214Z" fill="url(#paint60_linear_6316_7981)"/>
<path fill-rule="evenodd" clip-rule="evenodd" d="M316.761 836.458L320.157 836.602C321.982 836.681 323.704 837.569 324.93 839.07C326.157 840.572 326.79 842.555 326.681 844.578C326.597 846.191 325.935 847.7 324.844 848.77C323.753 849.839 322.321 850.383 320.867 850.279L315.668 849.911L316.761 836.458Z" fill="url(#paint61_linear_6316_7981)"/>
<path fill-rule="evenodd" clip-rule="evenodd" d="M202.513 836.941C211.241 835.214 231.272 836.901 231.272 836.901L232.032 839.137L233.109 850.158C233.109 850.158 213.922 853.015 204.506 852.718C203.546 852.688 202.671 852.517 201.874 852.243C201.594 851.976 201.32 851.699 201.062 851.402C197.176 846.915 198.49 840.544 202.513 836.941Z" fill="url(#paint62_linear_6316_7981)"/>
<path fill-rule="evenodd" clip-rule="evenodd" d="M201.645 837.131C201.919 837.065 202.209 837 202.511 836.941C198.488 840.544 197.174 846.916 201.06 851.402C201.318 851.699 201.592 851.976 201.872 852.243C194.864 849.827 194.298 838.962 201.645 837.131Z" fill="url(#paint63_linear_6316_7981)"/>
<path fill-rule="evenodd" clip-rule="evenodd" d="M237.05 836.461L233.65 836.501C231.823 836.523 230.081 837.359 228.817 838.82C227.552 840.285 226.872 842.248 226.929 844.274C226.974 845.889 227.598 847.418 228.662 848.521C229.726 849.624 231.143 850.21 232.599 850.151L237.805 849.94L237.05 836.461Z" fill="url(#paint64_linear_6316_7981)"/>
<path fill-rule="evenodd" clip-rule="evenodd" d="M353.7 803.559C349.763 794.497 340.134 793.025 331.938 797.262C331.797 797.45 279.89 824.052 234.116 835.711C235.426 839.911 236.1 844.383 236.247 848.775C236.273 849.755 236.257 850.719 236.2 851.674C271.303 849.871 309.399 838.162 342.135 827.876C352.286 824.601 358.066 813.6 353.7 803.559Z" fill="url(#paint65_linear_6316_7981)"/>
<path fill-rule="evenodd" clip-rule="evenodd" d="M317.009 849.466C316.873 844.4 317.857 839.686 319.965 835.321C320.024 835.121 320.096 834.93 320.16 834.732C317.546 833.921 314.17 832.825 309.733 831.319C277.229 820.197 252.431 808.963 228.765 796.035C219.571 791.012 209.118 794.378 206.175 805.256C203.547 814.968 209.317 823.259 218.073 826.172C244.271 834.891 230.631 832.469 239.187 835.222C262.164 842.328 290.758 848.8 317.063 850.566C317.044 850.2 317.021 849.832 317.009 849.466Z" fill="url(#paint66_linear_6316_7981)"/>
<path fill-rule="evenodd" clip-rule="evenodd" d="M260.181 717.063C260.181 717.063 263.678 732.212 280.65 731.898C297.935 731.584 299.476 717.014 299.476 717.014L288.186 714.597L287.241 702.016L270.254 703.274L269.94 715.225L260.181 717.063Z" fill="url(#paint67_linear_6316_7981)"/>
<path fill-rule="evenodd" clip-rule="evenodd" d="M272.638 666.366C272.638 666.366 253.174 704.073 276.264 713.22C292.551 719.672 302.763 688.18 299.718 679.65C295.009 666.462 291.908 668.028 291.908 668.028L272.638 666.366Z" fill="url(#paint68_linear_6316_7981)"/>
<path fill-rule="evenodd" clip-rule="evenodd" d="M304.403 662.936C314.019 665.58 305.8 686.435 291.322 681.503C276.843 676.571 271.155 676.643 268.899 680.617C266.643 684.594 266.159 698.712 261.262 691.735C255.896 684.083 252.903 668.728 259.483 663.777C265.364 659.352 266.737 652.494 273.791 652.731C283.153 653.048 290.392 648.898 294.619 651.89C299.471 655.328 297.327 660.992 304.403 662.936Z" fill="url(#paint69_linear_6316_7981)"/>
<path fill-rule="evenodd" clip-rule="evenodd" d="M268.009 683.859C268.009 683.859 263.856 679.393 263.193 684.777C262.528 690.161 264.66 697.094 267.16 693.293C269.661 689.494 268.009 683.859 268.009 683.859Z" fill="url(#paint70_linear_6316_7981)"/>
<path fill-rule="evenodd" clip-rule="evenodd" d="M284.542 785.452C284.946 788.17 283.489 790.636 280.771 791.039C278.053 791.442 275.525 789.562 275.122 786.844C274.719 784.129 275.963 781.428 278.681 781.025C281.399 780.624 284.142 782.734 284.542 785.452Z" fill="url(#paint71_linear_6316_7981)"/>
<path fill-rule="evenodd" clip-rule="evenodd" d="M510.737 693.51C510.737 693.51 510.737 731.643 527.454 728.534C537.669 726.635 543.716 685.556 543.716 685.556C543.716 685.556 533.148 662.016 531.968 669.72C523.388 725.735 517 682.863 510.737 693.51Z" fill="url(#paint72_linear_6316_7981)"/>
<path fill-rule="evenodd" clip-rule="evenodd" d="M555.636 919.853C555.636 919.853 556.9 927 557.519 934.074C557.761 936.839 555.629 939.238 552.856 939.354C543.436 939.748 523.283 940.509 516.052 940.188C514.966 940.138 514.253 939.025 514.657 938.014C514.993 937.168 515.643 936.483 516.472 936.102L549.76 920.802L555.636 919.853Z" fill="url(#paint73_linear_6316_7981)"/>
<path fill-rule="evenodd" clip-rule="evenodd" d="M556.67 915.653L555.656 924.203C555.656 924.203 549.826 926.916 545.844 923.859L548.258 914.334L556.67 915.653Z" fill="url(#paint74_linear_6316_7981)"/>
<path fill-rule="evenodd" clip-rule="evenodd" d="M555.908 754.946C556.346 757.177 558.261 866.343 546.592 915.262C546.401 916.061 546.807 916.884 547.566 917.194C549.354 917.926 552.864 918.984 557.068 919.125C558.372 919.17 559.539 918.324 559.905 917.072C563.242 905.723 579.224 848.854 581.309 794.529C583.639 733.827 581.309 792.464 581.309 792.464L579.944 754.941L555.908 754.946Z" fill="url(#paint75_linear_6316_7981)"/>
<path fill-rule="evenodd" clip-rule="evenodd" d="M593.928 923.583C593.928 923.583 595.939 927.189 597.883 936.775C598.234 938.506 597.024 940.163 595.266 940.337C592.155 940.643 587.366 941.037 583.53 941.009C581.762 940.997 580.382 939.459 580.594 937.703C581.02 934.203 582.343 928.462 586.434 923.988L593.928 923.583Z" fill="url(#paint76_linear_6316_7981)"/>
<path fill-rule="evenodd" clip-rule="evenodd" d="M595.694 912.586L593.322 925.514C593.322 925.514 590.98 927.255 586.345 925.994L587.476 912.084L595.694 912.586Z" fill="url(#paint77_linear_6316_7981)"/>
<path fill-rule="evenodd" clip-rule="evenodd" d="M602.093 758.296C611.638 815.891 600.023 900.65 596.106 917.239C595.866 918.255 595.047 919.032 594.018 919.202C592.27 919.494 589.391 919.729 586.554 918.906C585.574 918.621 584.889 917.741 584.85 916.722C584.323 903.309 585.27 820.974 576.376 788.435C575.926 786.785 574.92 785.348 573.525 784.357L556.266 772.087L554.943 752.253L602.093 758.296Z" fill="url(#paint78_linear_6316_7981)"/>
<path fill-rule="evenodd" clip-rule="evenodd" d="M540.233 651.336C575.079 647.851 601.439 656.671 601.439 656.671C609.964 706.416 602.93 763.791 602.93 763.791C580.79 769.598 555.812 760.242 555.812 760.242C552.132 739.449 536.797 691.44 536.797 691.44C529.81 690.572 523.253 694.101 524.762 684.401C526.269 674.704 535.843 651.776 540.233 651.336Z" fill="url(#paint79_linear_6316_7981)"/>
<path fill-rule="evenodd" clip-rule="evenodd" d="M590.47 684.364L601.439 656.671C601.439 656.671 628.156 674.822 632.548 697.836C627.5 698.207 618.314 699.521 609.324 704.061C607.35 693.194 590.47 684.364 590.47 684.364Z" fill="url(#paint80_linear_6316_7981)"/>
<path fill-rule="evenodd" clip-rule="evenodd" d="M564.802 710.422C564.802 710.422 594.796 727.374 604.916 712.901C607.016 709.896 607.518 706.908 607.001 704.061C615.992 699.52 625.177 698.207 630.225 697.836C631.549 704.773 630.849 712.151 626.773 719.611C609.044 752.038 560.833 717.818 560.833 717.818L564.802 710.422Z" fill="url(#paint81_linear_6316_7981)"/>
<path fill-rule="evenodd" clip-rule="evenodd" d="M559.3 721.923L549.461 687.557C549.348 687.169 549.016 686.884 548.613 686.837C546.83 686.629 541.663 686.043 535.7 685.539C528.515 684.933 520.17 684.441 515.184 684.859C514.477 684.918 514.046 685.667 514.363 686.305C517.197 692.041 528.861 715.376 534.701 723.019C534.894 723.271 535.193 723.42 535.512 723.417L558.343 723.204C559.008 723.199 559.483 722.561 559.3 721.923Z" fill="url(#paint82_linear_6316_7981)"/>
<path fill-rule="evenodd" clip-rule="evenodd" d="M564.45 718.057C564.45 718.057 566.731 708.679 565.81 705.355C564.89 702.028 563.107 697.749 557.169 698.701C551.228 699.651 544.221 702.154 544.221 702.154C544.221 702.154 544.575 706.485 549.089 705.088L546.289 707.254C546.289 707.254 546.69 710.724 550.503 708.869L547.899 711.743C547.899 711.743 549.536 714.592 552.343 712.765C555.148 710.937 556.494 719.185 564.45 718.057Z" fill="url(#paint83_linear_6316_7981)"/>
<path fill-rule="evenodd" clip-rule="evenodd" d="M518.637 703.549C518.637 703.549 511.724 696.817 510.737 693.51C509.75 690.204 508.986 685.633 514.524 683.281C520.061 680.931 527.328 679.329 527.328 679.329C527.328 679.329 529.331 683.189 524.763 684.401L528.285 684.75C528.285 684.75 529.789 687.903 525.574 688.359L529.307 689.407C529.307 689.407 529.433 692.692 526.084 692.635C522.735 692.575 525.977 700.28 518.637 703.549Z" fill="url(#paint84_linear_6316_7981)"/>
<path fill-rule="evenodd" clip-rule="evenodd" d="M568.988 629.494L578.088 655.812C578.238 656.248 578.06 656.73 577.655 656.953C575.174 658.325 566.238 662.29 555.467 655.461C554.346 654.749 553.582 653.589 553.412 652.273L550.463 629.494H568.988Z" fill="url(#paint85_linear_6316_7981)"/>
<path fill-rule="evenodd" clip-rule="evenodd" d="M541.812 622.982C541.812 622.982 544.753 644.077 550.246 649.481C555.742 654.883 565.452 647.176 570.592 635.836L564.797 614.952L541.812 622.982Z" fill="url(#paint86_linear_6316_7981)"/>
<path fill-rule="evenodd" clip-rule="evenodd" d="M564.354 628.037C563.884 628.136 563.437 627.797 563.415 627.315C563.345 625.856 563.098 622.955 562.203 620.904C562.203 620.904 562.984 618.918 556.932 621.421C550.88 623.922 541.798 627.575 537.002 624.357C532.325 621.219 528.67 607.452 541.491 611.244C541.979 611.39 542.476 611.039 542.491 610.532C542.552 608.338 543.282 603.349 548.52 602.258C553.422 601.239 555.804 603.648 556.742 605.051C557.019 605.464 557.605 605.516 557.944 605.155C559.556 603.443 563.825 599.887 569.254 602.973C573.728 605.516 574.161 608.476 573.901 610.267C573.815 610.846 574.366 611.301 574.92 611.113C576.424 610.598 578.766 610.489 580.693 613.487C583.357 617.627 578.65 620.501 577.253 621.238C577.022 621.357 576.864 621.58 576.837 621.839C576.622 623.828 575.422 632.482 570.57 636.936C570.149 637.322 569.464 637.127 569.298 636.58L566.763 628.253C566.645 627.864 566.251 627.632 565.856 627.716L564.354 628.037Z" fill="url(#paint87_linear_6316_7981)"/>
<path fill-rule="evenodd" clip-rule="evenodd" d="M564.118 629.65C564.118 629.65 567.017 621.523 569.849 624.548C572.683 627.573 568.152 633.13 564.474 633.902L564.118 629.65Z" fill="url(#paint88_linear_6316_7981)"/>
<defs>
<filter id="filter0_f_6316_7981" x="0" y="692" width="192" height="192" filterUnits="userSpaceOnUse" color-interpolation-filters="sRGB">
<feFlood flood-opacity="0" result="BackgroundImageFix"/>
<feBlend mode="normal" in="SourceGraphic" in2="BackgroundImageFix" result="shape"/>
<feGaussianBlur stdDeviation="8" result="effect1_foregroundBlur_6316_7981"/>
</filter>
<filter id="filter1_f_6316_7981" x="602" y="0" width="202" height="202" filterUnits="userSpaceOnUse" color-interpolation-filters="sRGB">
<feFlood flood-opacity="0" result="BackgroundImageFix"/>
<feBlend mode="normal" in="SourceGraphic" in2="BackgroundImageFix" result="shape"/>
<feGaussianBlur stdDeviation="8" result="effect1_foregroundBlur_6316_7981"/>
</filter>
<linearGradient id="paint0_linear_6316_7981" x1="96" y1="708" x2="96" y2="868" gradientUnits="userSpaceOnUse">
<stop stop-color="white"/>
<stop offset="1" stop-color="#05A8FF"/>
</linearGradient>
<linearGradient id="paint1_linear_6316_7981" x1="703" y1="16" x2="703" y2="186" gradientUnits="userSpaceOnUse">
<stop stop-color="white"/>
<stop offset="1" stop-color="#FFB8F2"/>
</linearGradient>
<linearGradient id="paint2_linear_6316_7981" x1="677" y1="264" x2="677" y2="296" gradientUnits="userSpaceOnUse">
<stop stop-color="white"/>
<stop offset="1" stop-color="#A3F0FF"/>
</linearGradient>
<linearGradient id="paint3_linear_6316_7981" x1="202" y1="964" x2="202" y2="988" gradientUnits="userSpaceOnUse">
<stop stop-color="white"/>
<stop offset="1" stop-color="#FCAEFF"/>
</linearGradient>
<linearGradient id="paint4_linear_6316_7981" x1="862.056" y1="1050.67" x2="393.565" y2="551.96" gradientUnits="userSpaceOnUse">
<stop stop-color="#E8D6FF"/>
<stop offset="1" stop-color="#FDDFF7"/>
</linearGradient>
<linearGradient id="paint5_linear_6316_7981" x1="156.166" y1="623.737" x2="758.724" y2="623.737" gradientUnits="userSpaceOnUse">
<stop stop-color="#2A3482"/>
<stop offset="1" stop-color="#140E42"/>
</linearGradient>
<linearGradient id="paint6_linear_6316_7981" x1="469.467" y1="470.986" x2="427.824" y2="873.003" gradientUnits="userSpaceOnUse">
<stop stop-color="#A736D4"/>
<stop offset="1" stop-color="#EF4979"/>
</linearGradient>
<linearGradient id="paint7_linear_6316_7981" x1="469.467" y1="470.986" x2="427.824" y2="873.003" gradientUnits="userSpaceOnUse">
<stop stop-color="#B14FDA"/>
<stop offset="1" stop-color="#F05E89"/>
</linearGradient>
<linearGradient id="paint8_linear_6316_7981" x1="156.166" y1="623.737" x2="758.724" y2="623.737" gradientUnits="userSpaceOnUse">
<stop stop-color="#B5B8D3"/>
<stop offset="1" stop-color="#ACAABC"/>
</linearGradient>
<linearGradient id="paint9_linear_6316_7981" x1="110.316" y1="547.035" x2="224.035" y2="736.832" gradientUnits="userSpaceOnUse">
<stop stop-color="#B37CFF"/>
<stop offset="1" stop-color="#F795E6"/>
</linearGradient>
<linearGradient id="paint10_linear_6316_7981" x1="212.835" y1="627.123" x2="218.356" y2="414.412" gradientUnits="userSpaceOnUse">
<stop stop-color="#2A3482"/>
<stop offset="1" stop-color="#140E42"/>
</linearGradient>
<linearGradient id="paint11_linear_6316_7981" x1="597.222" y1="328.054" x2="513.935" y2="469.001" gradientUnits="userSpaceOnUse">
<stop stop-color="#B37CFF"/>
<stop offset="1" stop-color="#F795E6"/>
</linearGradient>
<linearGradient id="paint12_linear_6316_7981" x1="597.132" y1="328.001" x2="513.845" y2="468.948" gradientUnits="userSpaceOnUse">
<stop stop-color="#B37CFF"/>
<stop offset="1" stop-color="#F795E6"/>
</linearGradient>
<linearGradient id="paint13_linear_6316_7981" x1="799.37" y1="742.86" x2="573.225" y2="742.86" gradientUnits="userSpaceOnUse">
<stop stop-color="#2A3482"/>
<stop offset="1" stop-color="#140E42"/>
</linearGradient>
<linearGradient id="paint14_linear_6316_7981" x1="745.437" y1="633.768" x2="953.654" y2="284.602" gradientUnits="userSpaceOnUse">
<stop stop-color="#52D8FF"/>
<stop offset="1" stop-color="#383FF6"/>
</linearGradient>
<linearGradient id="paint15_linear_6316_7981" x1="745.436" y1="633.768" x2="953.654" y2="284.602" gradientUnits="userSpaceOnUse">
<stop stop-color="#87E4FF"/>
<stop offset="1" stop-color="#7479F9"/>
</linearGradient>
<linearGradient id="paint16_linear_6316_7981" x1="235.049" y1="420.084" x2="317.879" y2="372.806" gradientUnits="userSpaceOnUse">
<stop stop-color="#F9B675"/>
<stop offset="1" stop-color="#F47960"/>
</linearGradient>
<linearGradient id="paint17_linear_6316_7981" x1="245.877" y1="467.356" x2="283.187" y2="557.656" gradientUnits="userSpaceOnUse">
<stop stop-color="#CA236D"/>
<stop offset="1" stop-color="#4B236D"/>
</linearGradient>
<linearGradient id="paint18_linear_6316_7981" x1="243.062" y1="431.877" x2="-40.3416" y2="609.292" gradientUnits="userSpaceOnUse">
<stop stop-color="#F9B675"/>
<stop offset="1" stop-color="#F47960"/>
</linearGradient>
<linearGradient id="paint19_linear_6316_7981" x1="260.346" y1="490.917" x2="315.156" y2="571.788" gradientUnits="userSpaceOnUse">
<stop stop-color="#CA236D"/>
<stop offset="1" stop-color="#4B236D"/>
</linearGradient>
<linearGradient id="paint20_linear_6316_7981" x1="312.634" y1="360.722" x2="380.759" y2="286.065" gradientUnits="userSpaceOnUse">
<stop stop-color="#52D8FF"/>
<stop offset="1" stop-color="#383FF6"/>
</linearGradient>
<linearGradient id="paint21_linear_6316_7981" x1="466.073" y1="271.076" x2="355.395" y2="324.974" gradientUnits="userSpaceOnUse">
<stop stop-color="#2A3482"/>
<stop offset="1" stop-color="#140E42"/>
</linearGradient>
<linearGradient id="paint22_linear_6316_7981" x1="376.885" y1="329.045" x2="360.868" y2="413.933" gradientUnits="userSpaceOnUse">
<stop stop-color="#FDF43F"/>
<stop offset="1" stop-color="#D83B64"/>
</linearGradient>
<linearGradient id="paint23_linear_6316_7981" x1="380.123" y1="392.833" x2="462.634" y2="392.833" gradientUnits="userSpaceOnUse">
<stop stop-color="#F9B675"/>
<stop offset="1" stop-color="#F47960"/>
</linearGradient>
<linearGradient id="paint24_linear_6316_7981" x1="346.54" y1="353.397" x2="348.448" y2="323.676" gradientUnits="userSpaceOnUse">
<stop stop-color="#F9B675"/>
<stop offset="1" stop-color="#F47960"/>
</linearGradient>
<linearGradient id="paint25_linear_6316_7981" x1="349.347" y1="328.25" x2="313.443" y2="259.54" gradientUnits="userSpaceOnUse">
<stop stop-color="#F9B675"/>
<stop offset="1" stop-color="#F47960"/>
</linearGradient>
<linearGradient id="paint26_linear_6316_7981" x1="-279.419" y1="-4979.04" x2="-265.411" y2="-4859.08" gradientUnits="userSpaceOnUse">
<stop stop-color="#2A3482"/>
<stop offset="1" stop-color="#140E42"/>
</linearGradient>
<linearGradient id="paint27_linear_6316_7981" x1="357.565" y1="323.955" x2="321.662" y2="255.245" gradientUnits="userSpaceOnUse">
<stop stop-color="#F9B675"/>
<stop offset="1" stop-color="#F47960"/>
</linearGradient>
<linearGradient id="paint28_linear_6316_7981" x1="483.632" y1="-509.87" x2="522.041" y2="-754.748" gradientUnits="userSpaceOnUse">
<stop stop-color="#2A3482"/>
<stop offset="1" stop-color="#140E42"/>
</linearGradient>
<linearGradient id="paint29_linear_6316_7981" x1="297.085" y1="397.775" x2="347.543" y2="155.098" gradientUnits="userSpaceOnUse">
<stop stop-color="#2A3482"/>
<stop offset="1" stop-color="#140E42"/>
</linearGradient>
<linearGradient id="paint30_linear_6316_7981" x1="466.074" y1="271.077" x2="355.396" y2="324.974" gradientUnits="userSpaceOnUse">
<stop stop-color="#7C82B3"/>
<stop offset="1" stop-color="#706B8A"/>
</linearGradient>
<linearGradient id="paint31_linear_6316_7981" x1="466.073" y1="271.076" x2="355.395" y2="324.974" gradientUnits="userSpaceOnUse">
<stop stop-color="#7C82B3"/>
<stop offset="1" stop-color="#706B8A"/>
</linearGradient>
<linearGradient id="paint32_linear_6316_7981" x1="466.075" y1="271.076" x2="355.397" y2="324.974" gradientUnits="userSpaceOnUse">
<stop stop-color="#7C82B3"/>
<stop offset="1" stop-color="#706B8A"/>
</linearGradient>
<linearGradient id="paint33_linear_6316_7981" x1="492.822" y1="379.311" x2="899.556" y2="-84.3009" gradientUnits="userSpaceOnUse">
<stop stop-color="#2A3482"/>
<stop offset="1" stop-color="#140E42"/>
</linearGradient>
<linearGradient id="paint34_linear_6316_7981" x1="567.485" y1="462.048" x2="849.31" y2="121.73" gradientUnits="userSpaceOnUse">
<stop stop-color="#FDF43F"/>
<stop offset="1" stop-color="#D83B64"/>
</linearGradient>
<linearGradient id="paint35_linear_6316_7981" x1="567.486" y1="462.048" x2="849.311" y2="121.73" gradientUnits="userSpaceOnUse">
<stop stop-color="#FFFDD4"/>
<stop offset="1" stop-color="#F6D3DD"/>
</linearGradient>
<linearGradient id="paint36_linear_6316_7981" x1="567.485" y1="462.048" x2="849.31" y2="121.729" gradientUnits="userSpaceOnUse">
<stop stop-color="#FFFDD4"/>
<stop offset="1" stop-color="#F6D3DD"/>
</linearGradient>
<linearGradient id="paint37_linear_6316_7981" x1="567.485" y1="462.048" x2="849.31" y2="121.729" gradientUnits="userSpaceOnUse">
<stop stop-color="#FFFDD4"/>
<stop offset="1" stop-color="#F6D3DD"/>
</linearGradient>
<linearGradient id="paint38_linear_6316_7981" x1="567.487" y1="462.048" x2="849.312" y2="121.729" gradientUnits="userSpaceOnUse">
<stop stop-color="#FFFDD4"/>
<stop offset="1" stop-color="#F6D3DD"/>
</linearGradient>
<linearGradient id="paint39_linear_6316_7981" x1="567.486" y1="462.048" x2="849.312" y2="121.728" gradientUnits="userSpaceOnUse">
<stop stop-color="#FFFDD4"/>
<stop offset="1" stop-color="#F6D3DD"/>
</linearGradient>
<linearGradient id="paint40_linear_6316_7981" x1="567.485" y1="462.048" x2="849.311" y2="121.73" gradientUnits="userSpaceOnUse">
<stop stop-color="#FFFDD4"/>
<stop offset="1" stop-color="#F6D3DD"/>
</linearGradient>
<linearGradient id="paint41_linear_6316_7981" x1="567.485" y1="462.048" x2="849.31" y2="121.73" gradientUnits="userSpaceOnUse">
<stop stop-color="#FFFDD4"/>
<stop offset="1" stop-color="#F6D3DD"/>
</linearGradient>
<linearGradient id="paint42_linear_6316_7981" x1="567.486" y1="462.048" x2="849.311" y2="121.73" gradientUnits="userSpaceOnUse">
<stop stop-color="#FFFDD4"/>
<stop offset="1" stop-color="#F6D3DD"/>
</linearGradient>
<linearGradient id="paint43_linear_6316_7981" x1="567.486" y1="462.048" x2="849.311" y2="121.73" gradientUnits="userSpaceOnUse">
<stop stop-color="#FFFDD4"/>
<stop offset="1" stop-color="#F6D3DD"/>
</linearGradient>
<linearGradient id="paint44_linear_6316_7981" x1="567.485" y1="462.048" x2="849.311" y2="121.73" gradientUnits="userSpaceOnUse">
<stop stop-color="#FFFDD4"/>
<stop offset="1" stop-color="#F6D3DD"/>
</linearGradient>
<linearGradient id="paint45_linear_6316_7981" x1="567.485" y1="462.048" x2="849.311" y2="121.73" gradientUnits="userSpaceOnUse">
<stop stop-color="#FFFDD4"/>
<stop offset="1" stop-color="#F6D3DD"/>
</linearGradient>
<linearGradient id="paint46_linear_6316_7981" x1="567.486" y1="462.048" x2="849.311" y2="121.728" gradientUnits="userSpaceOnUse">
<stop stop-color="#FFFDD4"/>
<stop offset="1" stop-color="#F6D3DD"/>
</linearGradient>
<linearGradient id="paint47_linear_6316_7981" x1="744.129" y1="494.337" x2="935.832" y2="631.173" gradientUnits="userSpaceOnUse">
<stop stop-color="#CD1467"/>
<stop offset="1" stop-color="#791CBC"/>
</linearGradient>
<linearGradient id="paint48_linear_6316_7981" x1="659.165" y1="375.306" x2="850.868" y2="512.142" gradientUnits="userSpaceOnUse">
<stop stop-color="#CD1467"/>
<stop offset="1" stop-color="#791CBC"/>
</linearGradient>
<linearGradient id="paint49_linear_6316_7981" x1="599.004" y1="502.372" x2="729.934" y2="306.578" gradientUnits="userSpaceOnUse">
<stop stop-color="#CD1467"/>
<stop offset="1" stop-color="#791CBC"/>
</linearGradient>
<linearGradient id="paint50_linear_6316_7981" x1="760.975" y1="65.4905" x2="684.094" y2="198.429" gradientUnits="userSpaceOnUse">
<stop stop-color="#A736D4"/>
<stop offset="1" stop-color="#EF4979"/>
</linearGradient>
<linearGradient id="paint51_linear_6316_7981" x1="754.155" y1="61.5457" x2="677.275" y2="194.484" gradientUnits="userSpaceOnUse">
<stop stop-color="#A736D4"/>
<stop offset="1" stop-color="#EF4979"/>
</linearGradient>
<linearGradient id="paint52_linear_6316_7981" x1="970.97" y1="186.933" x2="894.09" y2="319.872" gradientUnits="userSpaceOnUse">
<stop stop-color="#A736D4"/>
<stop offset="1" stop-color="#EF4979"/>
</linearGradient>
<linearGradient id="paint53_linear_6316_7981" x1="986.576" y1="195.96" x2="909.696" y2="328.898" gradientUnits="userSpaceOnUse">
<stop stop-color="#A736D4"/>
<stop offset="1" stop-color="#EF4979"/>
</linearGradient>
<linearGradient id="paint54_linear_6316_7981" x1="280.888" y1="693.599" x2="282.033" y2="673.371" gradientUnits="userSpaceOnUse">
<stop stop-color="#2A3482"/>
<stop offset="1" stop-color="#140E42"/>
</linearGradient>
<linearGradient id="paint55_linear_6316_7981" x1="281.3" y1="723.763" x2="281.3" y2="862.169" gradientUnits="userSpaceOnUse">
<stop stop-color="#FDF43F"/>
<stop offset="1" stop-color="#D83B64"/>
</linearGradient>
<linearGradient id="paint56_linear_6316_7981" x1="222.548" y1="741.284" x2="288.287" y2="900.082" gradientUnits="userSpaceOnUse">
<stop stop-color="#C3421A"/>
<stop offset="1" stop-color="#5B0E15"/>
</linearGradient>
<linearGradient id="paint57_linear_6316_7981" x1="339.088" y1="740.943" x2="273.35" y2="582.146" gradientUnits="userSpaceOnUse">
<stop stop-color="#C3421A"/>
<stop offset="1" stop-color="#5B0E15"/>
</linearGradient>
<linearGradient id="paint58_linear_6316_7981" x1="280.943" y1="761.768" x2="277.522" y2="900.317" gradientUnits="userSpaceOnUse">
<stop stop-color="#2A3482"/>
<stop offset="1" stop-color="#140E42"/>
</linearGradient>
<linearGradient id="paint59_linear_6316_7981" x1="320.398" y1="845.083" x2="356.322" y2="845.359" gradientUnits="userSpaceOnUse">
<stop stop-color="#CA236D"/>
<stop offset="1" stop-color="#4B236D"/>
</linearGradient>
<linearGradient id="paint60_linear_6316_7981" x1="360.728" y1="845.839" x2="329.189" y2="845.218" gradientUnits="userSpaceOnUse">
<stop stop-color="#A736D4"/>
<stop offset="1" stop-color="#EF4979"/>
</linearGradient>
<linearGradient id="paint61_linear_6316_7981" x1="344.108" y1="780.31" x2="306.188" y2="883.021" gradientUnits="userSpaceOnUse">
<stop stop-color="#F9B675"/>
<stop offset="1" stop-color="#F47960"/>
</linearGradient>
<linearGradient id="paint62_linear_6316_7981" x1="233.214" y1="844.905" x2="197.282" y2="845.623" gradientUnits="userSpaceOnUse">
<stop stop-color="#CA236D"/>
<stop offset="1" stop-color="#4B236D"/>
</linearGradient>
<linearGradient id="paint63_linear_6316_7981" x1="192.871" y1="844.517" x2="224.312" y2="844.265" gradientUnits="userSpaceOnUse">
<stop stop-color="#A736D4"/>
<stop offset="1" stop-color="#EF4979"/>
</linearGradient>
<linearGradient id="paint64_linear_6316_7981" x1="268.135" y1="749.357" x2="230.195" y2="852.122" gradientUnits="userSpaceOnUse">
<stop stop-color="#F9B675"/>
<stop offset="1" stop-color="#F47960"/>
</linearGradient>
<linearGradient id="paint65_linear_6316_7981" x1="360.183" y1="778.326" x2="261.604" y2="852.378" gradientUnits="userSpaceOnUse">
<stop stop-color="#52D8FF"/>
<stop offset="1" stop-color="#383FF6"/>
</linearGradient>
<linearGradient id="paint66_linear_6316_7981" x1="271.036" y1="844.744" x2="245.2" y2="778.862" gradientUnits="userSpaceOnUse">
<stop stop-color="#52D8FF"/>
<stop offset="1" stop-color="#383FF6"/>
</linearGradient>
<linearGradient id="paint67_linear_6316_7981" x1="280.259" y1="754.395" x2="279.384" y2="678.291" gradientUnits="userSpaceOnUse">
<stop stop-color="#C3421A"/>
<stop offset="1" stop-color="#5B0E15"/>
</linearGradient>
<linearGradient id="paint68_linear_6316_7981" x1="277.721" y1="712.151" x2="291.059" y2="647.226" gradientUnits="userSpaceOnUse">
<stop stop-color="#C3421A"/>
<stop offset="1" stop-color="#5B0E15"/>
</linearGradient>
<linearGradient id="paint69_linear_6316_7981" x1="292.2" y1="630.882" x2="284.471" y2="661.51" gradientUnits="userSpaceOnUse">
<stop stop-color="#2A3482"/>
<stop offset="1" stop-color="#140E42"/>
</linearGradient>
<linearGradient id="paint70_linear_6316_7981" x1="268.882" y1="720.773" x2="259.322" y2="617.351" gradientUnits="userSpaceOnUse">
<stop stop-color="#C3421A"/>
<stop offset="1" stop-color="#5B0E15"/>
</linearGradient>
<linearGradient id="paint71_linear_6316_7981" x1="280.558" y1="751.219" x2="278.349" y2="856.94" gradientUnits="userSpaceOnUse">
<stop stop-color="#52D8FF"/>
<stop offset="1" stop-color="#383FF6"/>
</linearGradient>
<linearGradient id="paint72_linear_6316_7981" x1="543.716" y1="698.442" x2="510.736" y2="698.442" gradientUnits="userSpaceOnUse">
<stop stop-color="#F9B675"/>
<stop offset="1" stop-color="#F47960"/>
</linearGradient>
<linearGradient id="paint73_linear_6316_7981" x1="536.758" y1="857.699" x2="535.889" y2="762.087" gradientUnits="userSpaceOnUse">
<stop stop-color="#CA236D"/>
<stop offset="1" stop-color="#4B236D"/>
</linearGradient>
<linearGradient id="paint74_linear_6316_7981" x1="556.67" y1="919.823" x2="545.842" y2="919.823" gradientUnits="userSpaceOnUse">
<stop stop-color="#F9B675"/>
<stop offset="1" stop-color="#F47960"/>
</linearGradient>
<linearGradient id="paint75_linear_6316_7981" x1="568.906" y1="961.02" x2="561.516" y2="1159.31" gradientUnits="userSpaceOnUse">
<stop stop-color="#CA236D"/>
<stop offset="1" stop-color="#4B236D"/>
</linearGradient>
<linearGradient id="paint76_linear_6316_7981" x1="589.981" y1="858.184" x2="589.111" y2="762.572" gradientUnits="userSpaceOnUse">
<stop stop-color="#CA236D"/>
<stop offset="1" stop-color="#4B236D"/>
</linearGradient>
<linearGradient id="paint77_linear_6316_7981" x1="595.694" y1="919.269" x2="586.346" y2="919.269" gradientUnits="userSpaceOnUse">
<stop stop-color="#F9B675"/>
<stop offset="1" stop-color="#F47960"/>
</linearGradient>
<linearGradient id="paint78_linear_6316_7981" x1="587.18" y1="960.34" x2="579.79" y2="1158.63" gradientUnits="userSpaceOnUse">
<stop stop-color="#CA236D"/>
<stop offset="1" stop-color="#4B236D"/>
</linearGradient>
<linearGradient id="paint79_linear_6316_7981" x1="586.676" y1="670.969" x2="472.957" y2="922.43" gradientUnits="userSpaceOnUse">
<stop stop-color="#FDF43F"/>
<stop offset="1" stop-color="#D83B64"/>
</linearGradient>
<linearGradient id="paint80_linear_6316_7981" x1="591.769" y1="786.508" x2="570.147" y2="891.012" gradientUnits="userSpaceOnUse">
<stop stop-color="#FDF43F"/>
<stop offset="1" stop-color="#D83B64"/>
</linearGradient>
<linearGradient id="paint81_linear_6316_7981" x1="630.834" y1="715.703" x2="560.833" y2="715.703" gradientUnits="userSpaceOnUse">
<stop stop-color="#F9B675"/>
<stop offset="1" stop-color="#F47960"/>
</linearGradient>
<linearGradient id="paint82_linear_6316_7981" x1="551.032" y1="670.635" x2="532.609" y2="713.858" gradientUnits="userSpaceOnUse">
<stop stop-color="#2A3482"/>
<stop offset="1" stop-color="#140E42"/>
</linearGradient>
<linearGradient id="paint83_linear_6316_7981" x1="566.028" y1="708.365" x2="544.22" y2="708.365" gradientUnits="userSpaceOnUse">
<stop stop-color="#F9B675"/>
<stop offset="1" stop-color="#F47960"/>
</linearGradient>
<linearGradient id="paint84_linear_6316_7981" x1="512.152" y1="696.177" x2="530.629" y2="684.591" gradientUnits="userSpaceOnUse">
<stop stop-color="#F9B675"/>
<stop offset="1" stop-color="#F47960"/>
</linearGradient>
<linearGradient id="paint85_linear_6316_7981" x1="578.139" y1="644.42" x2="550.463" y2="644.42" gradientUnits="userSpaceOnUse">
<stop stop-color="#F9B675"/>
<stop offset="1" stop-color="#F47960"/>
</linearGradient>
<linearGradient id="paint86_linear_6316_7981" x1="550.239" y1="643.659" x2="563.996" y2="676.541" gradientUnits="userSpaceOnUse">
<stop stop-color="#F9B675"/>
<stop offset="1" stop-color="#F47960"/>
</linearGradient>
<linearGradient id="paint87_linear_6316_7981" x1="565.566" y1="585.485" x2="551.942" y2="537.277" gradientUnits="userSpaceOnUse">
<stop stop-color="#2A3482"/>
<stop offset="1" stop-color="#140E42"/>
</linearGradient>
<linearGradient id="paint88_linear_6316_7981" x1="560.774" y1="644.576" x2="573.152" y2="674.161" gradientUnits="userSpaceOnUse">
<stop stop-color="#F9B675"/>
<stop offset="1" stop-color="#F47960"/>
</linearGradient>
</defs>
</svg>
